<svg width="16" height="16" viewBox="0 0 16 16" fill="none" xmlns="http://www.w3.org/2000/svg">
<g clip-path="url(#clip0_2413_3879)">
<g clip-path="url(#clip1_2413_3879)">
<path d="M8.01191 15.4597C5.01369 15.4597 2.01627 15.4597 -0.981938 15.4597C-1.28507 15.4597 -1.42521 15.5984 -1.42521 15.8977C-1.42521 15.9752 -1.42128 16.0527 -1.426 16.1295C-1.4323 16.2225 -1.44175 16.3155 -1.45907 16.4062C-1.52363 16.7372 -1.84093 17.0023 -2.22043 16.9984C-2.60151 16.9946 -2.91723 16.7116 -2.97471 16.3481C-2.98809 16.2628 -2.99518 16.1752 -2.99518 16.0891C-2.99597 14.3279 -3.00778 12.5659 -2.99124 10.8046C-2.9818 9.77829 -2.60229 8.88527 -1.87479 8.14186C-1.43309 7.69069 -0.907928 7.36976 -0.307183 7.16511C0.165224 7.00465 0.653378 6.95581 1.15098 6.95581C5.76246 6.95736 10.3739 6.95348 14.9854 6.95891C16.3365 6.96046 17.4309 7.4969 18.2419 8.56356C18.6403 9.08837 18.8781 9.68449 18.9592 10.3357C18.9867 10.555 18.9985 10.7783 18.9993 11C19.0025 12.7101 19.0017 14.4202 19.0009 16.1302C19.0009 16.3977 18.934 16.6411 18.7104 16.8178C18.4741 17.0046 18.2104 17.0535 17.9293 16.9395C17.66 16.8295 17.49 16.6271 17.4514 16.338C17.4317 16.1922 17.4341 16.0426 17.4301 15.8953C17.4238 15.6574 17.3238 15.5139 17.1239 15.4698C17.0798 15.4597 17.0333 15.4605 16.9876 15.4605C13.9965 15.4605 11.0054 15.4605 8.01348 15.4605L8.01191 15.4597Z" fill="#B0B3BD"/>
<path d="M7.90295 0C9.84769 0 11.7916 0 13.7356 0C14.3867 0 14.9954 0.143411 15.5205 0.539535C16.1961 1.04884 16.5905 1.71938 16.6236 2.56124C16.6519 3.27519 16.6393 3.9907 16.6425 4.70543C16.6448 5.16589 16.6425 5.62636 16.6425 6.08682C16.6425 6.12791 16.6401 6.17132 16.6291 6.21085C16.5952 6.33566 16.5267 6.38527 16.3976 6.36124C16.2567 6.33488 16.1205 6.27829 15.9795 6.26279C15.6481 6.22713 15.3158 6.20233 14.9828 6.18527C14.7607 6.17364 14.6922 6.13411 14.6607 5.91938C14.56 5.23876 13.9198 4.62636 13.101 4.63566C12.1877 4.64574 11.2744 4.63798 10.3618 4.63798C9.68235 4.63798 9.10208 5.03643 8.87139 5.66434C8.83832 5.75426 8.82572 5.85194 8.8084 5.94651C8.77612 6.11628 8.71234 6.17984 8.5407 6.18217C8.18088 6.18605 7.82028 6.18605 7.46046 6.18217C7.29512 6.18062 7.22977 6.11628 7.19985 5.92791C7.15812 5.66357 7.05419 5.42791 6.88413 5.22093C6.57627 4.84574 6.17788 4.64186 5.68657 4.63953C4.74412 4.63488 3.80167 4.63721 2.85843 4.63876C2.06636 4.63953 1.44672 5.24884 1.34594 5.91783C1.31366 6.13411 1.24831 6.17209 1.02628 6.18605C0.658588 6.21008 0.290898 6.24419 -0.0760049 6.28295C-0.188595 6.29457 -0.296462 6.34264 -0.408265 6.36124C-0.528728 6.38062 -0.58463 6.34031 -0.618486 6.22403C-0.631871 6.17829 -0.638169 6.12946 -0.638169 6.0814C-0.638957 4.97674 -0.653916 3.87209 -0.63502 2.76744C-0.615336 1.61163 -0.0728555 0.762016 0.988486 0.248062C1.40893 0.0457364 1.8648 0 2.32618 0C4.18511 0 6.04403 0 7.90295 0Z" fill="#B0B3BD"/>
</g>
</g>
<defs>
<clipPath id="clip0_2413_3879">
<rect width="16" height="16" fill="white"/>
</clipPath>
<clipPath id="clip1_2413_3879">
<rect width="22" height="17" fill="white" transform="translate(-3)"/>
</clipPath>
</defs>
</svg>
