<svg width="18" height="16" viewBox="0 0 18 16" fill="none" xmlns="http://www.w3.org/2000/svg">
<path d="M16.9937 8.9875C17.525 8.9875 17.9937 8.55 17.9937 7.98438C18.025 7.70312 17.9 7.45312 17.65 7.23438L16 5.78125V2C16 1.44687 15.5531 1 15 1H14C13.4469 1 13 1.44687 13 2V3.14687L9.67188 0.21875C9.48438 0.0625 9.23438 0 9.01562 0C8.79688 0 8.54688 0.03125 8.32812 0.25L0.3125 7.23438C0.09375 7.45312 0 7.70312 0 7.98438C0 8.54688 0.4375 8.9875 1 8.9875H2V11.1656C1.99688 11.1937 1.99688 11.2219 1.99688 11.2531V14.7531C1.99688 15.4438 2.55625 16.0031 3.24688 16.0031H3.74688C3.78437 16.0031 3.82188 16 3.85938 15.9969C3.90625 16 3.95312 16.0031 4 16.0031H5.74687C6.4375 16.0031 6.99687 15.4438 6.99687 14.7531V12.0031C6.99687 11.45 7.44375 11.0031 7.99687 11.0031H9.99687C10.55 11.0031 10.9969 11.45 10.9969 12.0031V14.7531C10.9969 15.4438 11.5562 16.0031 12.2469 16.0031H14.0125C14.0562 16.0031 14.1 16.0031 14.1438 16C14.1781 16.0031 14.2125 16.0031 14.2469 16.0031H14.7469C15.4375 16.0031 15.9969 15.4438 15.9969 14.7531V14.2469C16.0063 14.1656 16.0125 14.0812 16.0125 13.9937L15.9906 8.9875H16.9906H16.9937Z" fill="#34216B"/>
</svg>
