<svg width="19" height="18" viewBox="0 0 19 18" fill="none" xmlns="http://www.w3.org/2000/svg">
<path fill-rule="evenodd" clip-rule="evenodd" d="M7.56205 9.74995C7.36559 10.1996 7.25478 10.6951 7.25014 11.216L7.25 11.25V15.75H2.75V12.75C2.75 11.1091 4.06579 9.77688 5.70038 9.75041L5.74999 9.74999L7.56205 9.74995ZM13.25 8.25001C14.9069 8.25001 16.25 9.59316 16.25 11.25V15.75H7.99999V11.25C7.99999 9.59316 9.34313 8.25001 11 8.25001H13.25ZM6.50001 4.5C7.74054 4.5 8.75001 5.50951 8.75001 6.75C8.75001 7.99049 7.74054 9 6.50001 9C5.25952 9 4.25001 7.99049 4.25001 6.75C4.25001 5.50951 5.25952 4.5 6.50001 4.5ZM12.125 2.25C13.5725 2.25 14.75 3.42749 14.75 4.87501C14.75 6.32254 13.5725 7.49999 12.125 7.49999C10.6775 7.49999 9.50004 6.3225 9.50004 4.87501C9.5 3.42749 10.6775 2.25 12.125 2.25Z" fill="#2B7FFF"/>
</svg>
