<svg width="18" height="18" viewBox="0 0 18 18" fill="none" xmlns="http://www.w3.org/2000/svg">
<path d="M3.59998 3.15005C3.59998 2.79201 3.74221 2.44863 3.99538 2.19545C4.24856 1.94228 4.59193 1.80005 4.94998 1.80005H10.35C10.708 1.80005 11.0514 1.94228 11.3046 2.19545C11.5577 2.44863 11.7 2.79201 11.7 3.15005V7.20005H13.05C13.408 7.20005 13.7514 7.34228 14.0046 7.59545C14.2577 7.84863 14.4 8.19201 14.4 8.55005V15.75C14.4 15.8694 14.3526 15.9839 14.2682 16.0682C14.1838 16.1526 14.0693 16.2 13.95 16.2H11.7V13.05C11.7 12.9307 11.6526 12.8162 11.5682 12.7319C11.4838 12.6475 11.3693 12.6 11.25 12.6H6.74998C6.63063 12.6 6.51617 12.6475 6.43178 12.7319C6.34739 12.8162 6.29998 12.9307 6.29998 13.05V16.2H4.04998C3.93063 16.2 3.81617 16.1526 3.73178 16.0682C3.64739 15.9839 3.59998 15.8694 3.59998 15.75V3.15005ZM6.07498 5.85005C6.254 5.85005 6.42569 5.77893 6.55227 5.65235C6.67886 5.52576 6.74998 5.35407 6.74998 5.17505C6.74998 4.99603 6.67886 4.82434 6.55227 4.69775C6.42569 4.57116 6.254 4.50005 6.07498 4.50005C5.89595 4.50005 5.72427 4.57116 5.59768 4.69775C5.47109 4.82434 5.39998 4.99603 5.39998 5.17505C5.39998 5.35407 5.47109 5.52576 5.59768 5.65235C5.72427 5.77893 5.89595 5.85005 6.07498 5.85005ZM6.74998 7.87505C6.74998 7.69603 6.67886 7.52434 6.55227 7.39775C6.42569 7.27117 6.254 7.20005 6.07498 7.20005C5.89595 7.20005 5.72427 7.27117 5.59768 7.39775C5.47109 7.52434 5.39998 7.69603 5.39998 7.87505C5.39998 8.05407 5.47109 8.22576 5.59768 8.35235C5.72427 8.47893 5.89595 8.55005 6.07498 8.55005C6.254 8.55005 6.42569 8.47893 6.55227 8.35235C6.67886 8.22576 6.74998 8.05407 6.74998 7.87505ZM6.07498 11.25C6.16362 11.25 6.25139 11.2326 6.33329 11.1987C6.41518 11.1647 6.48959 11.115 6.55227 11.0523C6.61495 10.9897 6.66467 10.9153 6.69859 10.8334C6.73252 10.7515 6.74998 10.6637 6.74998 10.575C6.74998 10.4864 6.73252 10.3986 6.69859 10.3167C6.66467 10.2348 6.61495 10.1604 6.55227 10.0978C6.48959 10.0351 6.41518 9.98535 6.33329 9.95143C6.25139 9.91751 6.16362 9.90005 6.07498 9.90005C5.89595 9.90005 5.72427 9.97117 5.59768 10.0978C5.47109 10.2243 5.39998 10.396 5.39998 10.575C5.39998 10.7541 5.47109 10.9258 5.59768 11.0523C5.72427 11.1789 5.89595 11.25 6.07498 11.25ZM9.44998 5.17505C9.44998 4.99603 9.37886 4.82434 9.25227 4.69775C9.12568 4.57116 8.954 4.50005 8.77498 4.50005C8.59595 4.50005 8.42427 4.57116 8.29768 4.69775C8.17109 4.82434 8.09998 4.99603 8.09998 5.17505C8.09998 5.35407 8.17109 5.52576 8.29768 5.65235C8.42427 5.77893 8.59595 5.85005 8.77498 5.85005C8.954 5.85005 9.12568 5.77893 9.25227 5.65235C9.37886 5.52576 9.44998 5.35407 9.44998 5.17505ZM8.77498 8.55005C8.954 8.55005 9.12568 8.47893 9.25227 8.35235C9.37886 8.22576 9.44998 8.05407 9.44998 7.87505C9.44998 7.69603 9.37886 7.52434 9.25227 7.39775C9.12568 7.27117 8.954 7.20005 8.77498 7.20005C8.59595 7.20005 8.42427 7.27117 8.29768 7.39775C8.17109 7.52434 8.09998 7.69603 8.09998 7.87505C8.09998 8.05407 8.17109 8.22576 8.29768 8.35235C8.42427 8.47893 8.59595 8.55005 8.77498 8.55005ZM9.44998 10.575C9.44998 10.396 9.37886 10.2243 9.25227 10.0978C9.12568 9.97117 8.954 9.90005 8.77498 9.90005C8.59595 9.90005 8.42427 9.97117 8.29768 10.0978C8.17109 10.2243 8.09998 10.396 8.09998 10.575C8.09998 10.7541 8.17109 10.9258 8.29768 11.0523C8.42427 11.1789 8.59595 11.25 8.77498 11.25C8.954 11.25 9.12568 11.1789 9.25227 11.0523C9.37886 10.9258 9.44998 10.7541 9.44998 10.575ZM11.475 11.25C11.5636 11.25 11.6514 11.2326 11.7333 11.1987C11.8152 11.1647 11.8896 11.115 11.9523 11.0523C12.015 10.9897 12.0647 10.9153 12.0986 10.8334C12.1325 10.7515 12.15 10.6637 12.15 10.575C12.15 10.4864 12.1325 10.3986 12.0986 10.3167C12.0647 10.2348 12.015 10.1604 11.9523 10.0978C11.8896 10.0351 11.8152 9.98535 11.7333 9.95143C11.6514 9.91751 11.5636 9.90005 11.475 9.90005C11.296 9.90005 11.1243 9.97117 10.9977 10.0978C10.8711 10.2243 10.8 10.396 10.8 10.575C10.8 10.7541 10.8711 10.9258 10.9977 11.0523C11.1243 11.1789 11.296 11.25 11.475 11.25ZM10.8 13.5V16.2H9.44998V13.5H10.8ZM8.54997 13.5H7.19998V16.2H8.54997V13.5Z" fill="#000929"/>
</svg>
